<svg width="615" height="202" viewBox="0 0 615 202" fill="none" xmlns="http://www.w3.org/2000/svg">
<g clip-path="url(#clip0_945_5)">
<g clip-path="url(#clip1_945_5)">
<path d="M47.1458 126.625H28.4214V145.385H47.1458V126.625Z" fill="white"/>
<path d="M66.539 136.005H57.1768V145.385H66.539V136.005Z" fill="white"/>
<path d="M84.5947 123.945H75.2324V133.325H84.5947V123.945Z" fill="white"/>
<path d="M66.539 56.945H57.1768V66.325H66.539V56.945Z" fill="white"/>
<path d="M79.9135 71.685H70.5513V81.065H79.9135V71.685Z" fill="white"/>
<path d="M110.675 58.955H91.9507V77.715H110.675V58.955Z" fill="white"/>
<path d="M90.9741 117.58H38.1176V86.09H119.368H119.703H122.291L122.351 153.76L122.378 185.156V185.223L112.347 185.23V185.163V174.53H93.6222V185.183V185.25H91.0342V185.183L18.0824 185.25L18.0557 153.854L91.0075 153.787L90.9741 117.58Z" fill="white"/>
<path d="M138.434 91.45H148.458V102.17V102.833L195.938 102.786L195.925 84.08L162.502 84.1135V71.9999L195.938 71.9664V71.35V39.1364V28.47H195.925H183.901V18.4334V18.42H171.195V18.4401L138.428 18.4736L138.448 39.19L171.195 39.1565V51.2701L162.502 51.2835V51.25H137.759V91.45H138.434Z" fill="white"/>
<path d="M196.273 117.245H177.548V136.005H196.273V117.245Z" fill="white"/>
<path d="M147.455 175.535H138.093V184.915H147.455V175.535Z" fill="white"/>
<path d="M169.523 125.955H152.136V135.335H169.523V125.955Z" fill="white"/>
<path d="M147.455 142.035H138.093V169.505H147.455V142.035Z" fill="white"/>
<path d="M195.938 141.7V169.25L179.969 185.25H151.802V141.7H195.938Z" fill="white"/>
<path d="M21.0652 14.735H15.7153V20.095H21.0652V14.735Z" fill="white"/>
<path d="M198.948 182.905H193.598V188.265H198.948V182.905Z" fill="white"/>
<path d="M18.0557 36.9522L36.292 18.42H49.486H113.015V27.8H122.378V49.91H49.486V117.58H18.0557V49.91V36.9522Z" fill="white"/>
<path d="M185.238 1H174.539V3.68H185.238V1Z" fill="white"/>
<path d="M0 1V3.68V199.32V202H2.67492H195.637H213.325H216V199.32V181.578V3.68V1H213.325H197.276V3.68H213.325V182.918L196.961 199.32H2.67492V3.68H167.183V1H2.67492H0Z" fill="white"/>
<path d="M204.632 9.71002H173.201V12.39H204.632V27.13H207.306V12.39V9.71002H204.632Z" fill="white"/>
</g>
<g clip-path="url(#clip2_945_5)">
<path d="M263.972 140.523C263.972 142.111 263.554 143.514 262.717 144.732C261.892 145.951 260.705 146.905 259.154 147.594C257.603 148.283 255.738 148.628 253.56 148.628C251.148 148.628 249.123 148.277 247.486 147.575C245.862 146.862 244.514 145.982 243.443 144.935L246.508 141.538C247.455 142.363 248.502 143.003 249.646 143.458C250.791 143.902 252.046 144.123 253.412 144.123C254.68 144.123 255.708 143.852 256.495 143.311C257.283 142.757 257.677 141.982 257.677 140.985C257.677 140.049 257.345 139.317 256.68 138.788C256.028 138.258 254.809 137.723 253.025 137.182C250.034 136.271 247.905 135.2 246.637 133.969C245.382 132.726 244.754 131.132 244.754 129.188C244.754 127.625 245.185 126.289 246.046 125.182C246.92 124.074 248.089 123.231 249.554 122.652C251.018 122.062 252.631 121.766 254.391 121.766C256.372 121.766 258.12 122.055 259.634 122.634C261.148 123.2 262.458 124.012 263.566 125.071L260.705 128.357C259.843 127.631 258.914 127.095 257.917 126.751C256.92 126.394 255.905 126.215 254.871 126.215C253.714 126.215 252.785 126.431 252.083 126.862C251.382 127.28 251.031 127.902 251.031 128.726C251.031 129.268 251.185 129.723 251.492 130.092C251.8 130.462 252.335 130.812 253.098 131.145C253.862 131.465 254.92 131.84 256.274 132.271C257.886 132.763 259.265 133.354 260.409 134.043C261.566 134.72 262.446 135.575 263.049 136.609C263.665 137.643 263.972 138.948 263.972 140.523ZM285.382 146.855C284.619 147.348 283.696 147.766 282.613 148.111C281.53 148.455 280.312 148.628 278.958 148.628C276.398 148.628 274.496 147.975 273.253 146.671C272.01 145.354 271.388 143.569 271.388 141.317V132.418H267.272V128.394H271.388V124.148L277.222 123.446V128.394H283.536L282.964 132.418H277.222V141.317C277.222 142.289 277.444 142.985 277.887 143.403C278.33 143.822 279.038 144.031 280.01 144.031C280.699 144.031 281.327 143.951 281.893 143.791C282.472 143.618 282.988 143.403 283.444 143.145L285.382 146.855ZM306.386 142.351C306.386 143.089 306.485 143.625 306.681 143.957C306.891 144.289 307.223 144.542 307.678 144.714L306.478 148.554C305.321 148.443 304.343 148.191 303.543 147.797C302.755 147.391 302.134 146.782 301.678 145.969C300.928 146.868 299.968 147.538 298.798 147.982C297.629 148.412 296.435 148.628 295.217 148.628C293.198 148.628 291.586 148.055 290.38 146.911C289.186 145.754 288.589 144.271 288.589 142.462C288.589 140.332 289.42 138.689 291.081 137.532C292.755 136.375 295.106 135.797 298.134 135.797H300.774V135.058C300.774 133.052 299.481 132.049 296.897 132.049C296.269 132.049 295.463 132.142 294.478 132.326C293.494 132.498 292.509 132.751 291.525 133.083L290.177 129.206C291.445 128.726 292.761 128.363 294.128 128.117C295.506 127.871 296.737 127.748 297.82 127.748C300.737 127.748 302.891 128.345 304.281 129.538C305.685 130.72 306.386 132.431 306.386 134.671V142.351ZM297.229 144.455C297.857 144.455 298.515 144.271 299.205 143.902C299.894 143.52 300.417 142.985 300.774 142.295V139.12H299.334C297.709 139.12 296.515 139.372 295.752 139.877C294.989 140.369 294.608 141.095 294.608 142.055C294.608 142.806 294.835 143.397 295.291 143.828C295.758 144.246 296.405 144.455 297.229 144.455ZM322.885 127.748C324.596 127.748 325.975 128.172 327.021 129.022C328.067 129.871 328.83 131.071 329.31 132.622C329.802 134.172 330.048 136.012 330.048 138.142C330.048 140.16 329.753 141.963 329.162 143.551C328.571 145.126 327.716 146.369 326.596 147.28C325.476 148.178 324.116 148.628 322.516 148.628C320.608 148.628 319.058 147.945 317.864 146.578V155.569L312.03 156.178V128.394H317.199L317.458 130.591C318.258 129.569 319.131 128.843 320.079 128.412C321.027 127.969 321.962 127.748 322.885 127.748ZM321.076 132.049C320.399 132.049 319.802 132.252 319.285 132.658C318.768 133.065 318.295 133.618 317.864 134.32V142.591C318.27 143.194 318.695 143.637 319.138 143.92C319.593 144.203 320.128 144.345 320.744 144.345C321.778 144.345 322.584 143.877 323.162 142.942C323.741 141.994 324.03 140.418 324.03 138.215C324.03 136.591 323.913 135.335 323.679 134.449C323.445 133.551 323.107 132.929 322.664 132.585C322.221 132.228 321.691 132.049 321.076 132.049ZM338.72 148H332.406L339.126 137.698L333.034 128.394H339.569L342.708 134.671L345.735 128.394H351.938L346.178 137.477L352.935 148H346.326L342.449 140.671L338.72 148ZM396.863 140.523C396.863 142.111 396.444 143.514 395.608 144.732C394.783 145.951 393.595 146.905 392.044 147.594C390.494 148.283 388.629 148.628 386.451 148.628C384.038 148.628 382.014 148.277 380.377 147.575C378.752 146.862 377.404 145.982 376.334 144.935L379.398 141.538C380.346 142.363 381.392 143.003 382.537 143.458C383.681 143.902 384.937 144.123 386.303 144.123C387.571 144.123 388.598 143.852 389.386 143.311C390.174 142.757 390.568 141.982 390.568 140.985C390.568 140.049 390.235 139.317 389.571 138.788C388.918 138.258 387.7 137.723 385.915 137.182C382.924 136.271 380.795 135.2 379.528 133.969C378.272 132.726 377.644 131.132 377.644 129.188C377.644 127.625 378.075 126.289 378.937 125.182C379.811 124.074 380.98 123.231 382.444 122.652C383.909 122.062 385.521 121.766 387.281 121.766C389.263 121.766 391.011 122.055 392.524 122.634C394.038 123.2 395.349 124.012 396.457 125.071L393.595 128.357C392.734 127.631 391.804 127.095 390.808 126.751C389.811 126.394 388.795 126.215 387.761 126.215C386.604 126.215 385.675 126.431 384.974 126.862C384.272 127.28 383.921 127.902 383.921 128.726C383.921 129.268 384.075 129.723 384.383 130.092C384.691 130.462 385.226 130.812 385.989 131.145C386.752 131.465 387.811 131.84 389.164 132.271C390.777 132.763 392.155 133.354 393.3 134.043C394.457 134.72 395.337 135.575 395.94 136.609C396.555 137.643 396.863 138.948 396.863 140.523ZM418.273 146.855C417.51 147.348 416.587 147.766 415.504 148.111C414.421 148.455 413.202 148.628 411.848 148.628C409.288 148.628 407.387 147.975 406.144 146.671C404.901 145.354 404.279 143.569 404.279 141.317V132.418H400.162V128.394H404.279V124.148L410.113 123.446V128.394H416.427L415.854 132.418H410.113V141.317C410.113 142.289 410.334 142.985 410.778 143.403C411.221 143.822 411.928 144.031 412.901 144.031C413.59 144.031 414.218 143.951 414.784 143.791C415.362 143.618 415.879 143.403 416.334 143.145L418.273 146.855ZM427.831 139.895C428.027 141.495 428.551 142.646 429.4 143.348C430.249 144.037 431.295 144.382 432.538 144.382C433.437 144.382 434.304 144.234 435.141 143.938C435.978 143.643 436.784 143.249 437.56 142.757L439.904 145.932C438.981 146.72 437.861 147.366 436.544 147.871C435.24 148.375 433.751 148.628 432.077 148.628C429.837 148.628 427.96 148.185 426.446 147.298C424.932 146.4 423.794 145.169 423.031 143.606C422.267 142.043 421.886 140.246 421.886 138.215C421.886 136.283 422.255 134.529 422.994 132.954C423.732 131.366 424.809 130.105 426.224 129.169C427.652 128.222 429.394 127.748 431.449 127.748C433.32 127.748 434.938 128.148 436.304 128.948C437.683 129.748 438.747 130.898 439.498 132.4C440.261 133.902 440.643 135.705 440.643 137.809C440.643 138.142 440.631 138.498 440.606 138.88C440.594 139.262 440.569 139.6 440.532 139.895H427.831ZM431.449 131.662C430.403 131.662 429.56 132.037 428.92 132.788C428.28 133.538 427.892 134.738 427.757 136.388H434.957C434.944 134.96 434.667 133.815 434.126 132.954C433.584 132.092 432.692 131.662 431.449 131.662ZM463.419 128.394L456.884 148H450.016L443.407 128.394H449.702L453.524 143.532L457.511 128.394H463.419ZM472.127 139.895C472.324 141.495 472.847 142.646 473.697 143.348C474.546 144.037 475.592 144.382 476.835 144.382C477.734 144.382 478.601 144.234 479.438 143.938C480.275 143.643 481.081 143.249 481.857 142.757L484.201 145.932C483.278 146.72 482.158 147.366 480.841 147.871C479.537 148.375 478.047 148.628 476.374 148.628C474.134 148.628 472.257 148.185 470.743 147.298C469.229 146.4 468.091 145.169 467.327 143.606C466.564 142.043 466.183 140.246 466.183 138.215C466.183 136.283 466.552 134.529 467.291 132.954C468.029 131.366 469.106 130.105 470.521 129.169C471.949 128.222 473.691 127.748 475.746 127.748C477.617 127.748 479.235 128.148 480.601 128.948C481.98 129.748 483.044 130.898 483.795 132.4C484.558 133.902 484.94 135.705 484.94 137.809C484.94 138.142 484.927 138.498 484.903 138.88C484.891 139.262 484.866 139.6 484.829 139.895H472.127ZM475.746 131.662C474.7 131.662 473.857 132.037 473.217 132.788C472.577 133.538 472.189 134.738 472.054 136.388H479.254C479.241 134.96 478.964 133.815 478.423 132.954C477.881 132.092 476.989 131.662 475.746 131.662ZM265.265 166.412L262.274 192H255.978L254.114 173.705L252.065 192H245.658L242.889 166.412H248.557L249.425 186.831L251.548 169.366H256.754L258.729 186.831L260.003 166.412H265.265ZM276.188 162.129C277.198 162.129 278.022 162.443 278.662 163.071C279.302 163.698 279.622 164.48 279.622 165.415C279.622 166.351 279.302 167.138 278.662 167.778C278.022 168.406 277.198 168.72 276.188 168.72C275.167 168.72 274.33 168.406 273.678 167.778C273.038 167.138 272.718 166.351 272.718 165.415C272.718 164.48 273.038 163.698 273.678 163.071C274.33 162.443 275.167 162.129 276.188 162.129ZM279.715 172.394V188.012H284.699V192H268.324V188.012H273.881V176.382H268.508V172.394H279.715ZM307.531 190.855C306.768 191.348 305.845 191.766 304.761 192.111C303.678 192.455 302.46 192.628 301.106 192.628C298.546 192.628 296.645 191.975 295.401 190.671C294.158 189.354 293.537 187.569 293.537 185.317V176.418H289.42V172.394H293.537V168.148L299.371 167.446V172.394H305.685L305.112 176.418H299.371V185.317C299.371 186.289 299.592 186.985 300.035 187.403C300.478 187.822 301.186 188.031 302.158 188.031C302.848 188.031 303.475 187.951 304.041 187.791C304.62 187.618 305.137 187.403 305.592 187.145L307.531 190.855ZM317.864 164.031V174.332C319.501 172.609 321.421 171.748 323.624 171.748C325.371 171.748 326.707 172.258 327.63 173.28C328.553 174.302 329.015 175.742 329.015 177.6V192H323.181V179.225C323.181 178.043 323.045 177.218 322.775 176.751C322.516 176.283 322.024 176.049 321.298 176.049C320.682 176.049 320.091 176.265 319.525 176.695C318.971 177.114 318.418 177.692 317.864 178.431V192H312.03V164.603L317.864 164.031ZM363.804 170.732V177.508H372.776V181.846H363.804V192H357.73V166.412H374.548L373.921 170.732H363.804ZM378.66 192V188.086H381.244V176.271H378.66V172.394H385.694L386.764 176.806C387.466 175.12 388.358 173.865 389.441 173.04C390.537 172.215 391.872 171.803 393.448 171.803C394.112 171.803 394.703 171.858 395.22 171.969C395.737 172.068 396.223 172.209 396.678 172.394L395.589 180.591H391.934V176.972C390.826 177.169 389.854 177.772 389.017 178.782C388.18 179.778 387.534 181.009 387.078 182.474V188.086H390.955V192H378.66ZM409.079 162.129C410.088 162.129 410.913 162.443 411.553 163.071C412.193 163.698 412.513 164.48 412.513 165.415C412.513 166.351 412.193 167.138 411.553 167.778C410.913 168.406 410.088 168.72 409.079 168.72C408.058 168.72 407.221 168.406 406.568 167.778C405.928 167.138 405.608 166.351 405.608 165.415C405.608 164.48 405.928 163.698 406.568 163.071C407.221 162.443 408.058 162.129 409.079 162.129ZM412.605 172.394V188.012H417.59V192H401.214V188.012H406.771V176.382H401.399V172.394H412.605ZM427.831 183.895C428.027 185.495 428.551 186.646 429.4 187.348C430.249 188.037 431.295 188.382 432.538 188.382C433.437 188.382 434.304 188.234 435.141 187.938C435.978 187.643 436.784 187.249 437.56 186.757L439.904 189.932C438.981 190.72 437.861 191.366 436.544 191.871C435.24 192.375 433.751 192.628 432.077 192.628C429.837 192.628 427.96 192.185 426.446 191.298C424.932 190.4 423.794 189.169 423.031 187.606C422.267 186.043 421.886 184.246 421.886 182.215C421.886 180.283 422.255 178.529 422.994 176.954C423.732 175.366 424.809 174.105 426.224 173.169C427.652 172.222 429.394 171.748 431.449 171.748C433.32 171.748 434.938 172.148 436.304 172.948C437.683 173.748 438.747 174.898 439.498 176.4C440.261 177.902 440.643 179.705 440.643 181.809C440.643 182.142 440.631 182.498 440.606 182.88C440.594 183.262 440.569 183.6 440.532 183.895H427.831ZM431.449 175.662C430.403 175.662 429.56 176.037 428.92 176.788C428.28 177.538 427.892 178.738 427.757 180.388H434.957C434.944 178.96 434.667 177.815 434.126 176.954C433.584 176.092 432.692 175.662 431.449 175.662ZM444.921 192V172.394H450.016L450.422 174.665C451.296 173.68 452.219 172.948 453.191 172.468C454.164 171.988 455.271 171.748 456.514 171.748C458.188 171.748 459.505 172.258 460.465 173.28C461.425 174.302 461.905 175.742 461.905 177.6V192H456.071V179.28C456.071 178.074 455.936 177.237 455.665 176.769C455.407 176.289 454.914 176.049 454.188 176.049C453.573 176.049 452.982 176.246 452.416 176.64C451.862 177.034 451.308 177.582 450.754 178.283V192H444.921ZM478.22 163.994L484.054 164.603V192H478.884L478.589 189.84C478.047 190.603 477.327 191.262 476.429 191.815C475.531 192.357 474.441 192.628 473.161 192.628C471.537 192.628 470.189 192.191 469.118 191.317C468.06 190.443 467.266 189.225 466.737 187.662C466.22 186.086 465.961 184.246 465.961 182.142C465.961 180.123 466.275 178.332 466.903 176.769C467.531 175.206 468.429 173.982 469.598 173.095C470.767 172.197 472.158 171.748 473.771 171.748C475.531 171.748 477.014 172.351 478.22 173.557V163.994ZM475.34 176.012C474.331 176.012 473.518 176.492 472.903 177.452C472.287 178.4 471.98 179.975 471.98 182.178C471.98 183.791 472.109 185.046 472.367 185.945C472.626 186.831 472.983 187.452 473.438 187.809C473.894 188.166 474.417 188.345 475.007 188.345C475.66 188.345 476.251 188.142 476.78 187.735C477.321 187.329 477.801 186.775 478.22 186.074V177.618C477.814 177.114 477.383 176.72 476.927 176.437C476.472 176.154 475.943 176.012 475.34 176.012ZM522.849 171.046V192H516.794V171.046H509.612V166.412H530.326L529.698 171.046H522.849ZM538.573 183.895C538.77 185.495 539.293 186.646 540.142 187.348C540.991 188.037 542.037 188.382 543.28 188.382C544.179 188.382 545.047 188.234 545.884 187.938C546.72 187.643 547.527 187.249 548.302 186.757L550.647 189.932C549.724 190.72 548.604 191.366 547.287 191.871C545.982 192.375 544.493 192.628 542.819 192.628C540.579 192.628 538.702 192.185 537.188 191.298C535.674 190.4 534.536 189.169 533.773 187.606C533.01 186.043 532.628 184.246 532.628 182.215C532.628 180.283 532.997 178.529 533.736 176.954C534.474 175.366 535.551 174.105 536.967 173.169C538.394 172.222 540.136 171.748 542.191 171.748C544.062 171.748 545.68 172.148 547.047 172.948C548.425 173.748 549.49 174.898 550.24 176.4C551.004 177.902 551.385 179.705 551.385 181.809C551.385 182.142 551.373 182.498 551.348 182.88C551.336 183.262 551.311 183.6 551.274 183.895H538.573ZM542.191 175.662C541.145 175.662 540.302 176.037 539.662 176.788C539.022 177.538 538.634 178.738 538.499 180.388H545.699C545.687 178.96 545.41 177.815 544.868 176.954C544.327 176.092 543.434 175.662 542.191 175.662ZM572.167 186.351C572.167 187.089 572.266 187.625 572.463 187.957C572.672 188.289 573.004 188.542 573.46 188.714L572.26 192.554C571.103 192.443 570.124 192.191 569.324 191.797C568.537 191.391 567.915 190.782 567.46 189.969C566.709 190.868 565.749 191.538 564.58 191.982C563.41 192.412 562.217 192.628 560.998 192.628C558.98 192.628 557.367 192.055 556.161 190.911C554.967 189.754 554.37 188.271 554.37 186.462C554.37 184.332 555.201 182.689 556.863 181.532C558.537 180.375 560.887 179.797 563.915 179.797H566.555V179.058C566.555 177.052 565.263 176.049 562.678 176.049C562.05 176.049 561.244 176.142 560.26 176.326C559.275 176.498 558.29 176.751 557.306 177.083L555.958 173.206C557.226 172.726 558.543 172.363 559.909 172.117C561.287 171.871 562.518 171.748 563.601 171.748C566.518 171.748 568.672 172.345 570.063 173.538C571.466 174.72 572.167 176.431 572.167 178.671V186.351ZM563.01 188.455C563.638 188.455 564.297 188.271 564.986 187.902C565.675 187.52 566.198 186.985 566.555 186.295V183.12H565.115C563.49 183.12 562.297 183.372 561.534 183.877C560.77 184.369 560.389 185.095 560.389 186.055C560.389 186.806 560.617 187.397 561.072 187.828C561.54 188.246 562.186 188.455 563.01 188.455ZM592.303 171.748C593.694 171.748 594.722 172.203 595.387 173.114C596.063 174.012 596.402 175.471 596.402 177.489V192H591.399V178.154C591.399 177.465 591.331 176.978 591.196 176.695C591.073 176.412 590.814 176.271 590.42 176.271C590.113 176.271 589.793 176.363 589.46 176.548C589.14 176.72 588.783 177.052 588.39 177.545V192H584.291V178.154C584.291 177.465 584.223 176.978 584.088 176.695C583.965 176.412 583.707 176.271 583.313 176.271C583.005 176.271 582.685 176.363 582.353 176.548C582.033 176.72 581.676 177.052 581.282 177.545V192H576.205V172.394H580.488L580.876 174.295C581.491 173.458 582.113 172.825 582.74 172.394C583.368 171.963 584.113 171.748 584.974 171.748C585.713 171.748 586.34 171.938 586.857 172.32C587.387 172.689 587.762 173.274 587.983 174.074C588.574 173.385 589.227 172.825 589.94 172.394C590.654 171.963 591.442 171.748 592.303 171.748Z" fill="#FEFBFC"/>
</g>
</g>
<defs>
<clipPath id="clip0_945_5">
<rect width="615" height="202" fill="white"/>
</clipPath>
<clipPath id="clip1_945_5">
<rect width="216" height="201" fill="white" transform="translate(0 1)"/>
</clipPath>
<clipPath id="clip2_945_5">
<rect width="405" height="214" fill="white" transform="translate(226 -12)"/>
</clipPath>
</defs>
</svg>
