<svg width="786" height="202" viewBox="0 0 786 202" fill="none" xmlns="http://www.w3.org/2000/svg">
<g clip-path="url(#clip0_944_16)">
<path d="M33.2201 67.736C33.7961 68.792 34.4521 70.104 35.1881 71.672C35.9561 73.208 36.7401 74.888 37.5401 76.712C38.3721 78.504 39.1881 80.344 39.9881 82.232C40.7881 84.12 41.5401 85.896 42.2441 87.56C42.9481 85.896 43.7001 84.12 44.5001 82.232C45.3001 80.344 46.1001 78.504 46.9001 76.712C47.7321 74.888 48.5161 73.208 49.2521 71.672C50.0201 70.104 50.6921 68.792 51.2681 67.736H58.0841C58.4041 69.944 58.6921 72.424 58.9481 75.176C59.2361 77.896 59.4761 80.744 59.6681 83.72C59.8921 86.664 60.0841 89.624 60.2441 92.6C60.4361 95.576 60.5961 98.376 60.7241 101H53.4281C53.3321 97.768 53.2041 94.248 53.0441 90.44C52.8841 86.632 52.6441 82.792 52.3241 78.92C51.7481 80.264 51.1081 81.752 50.4041 83.384C49.7001 85.016 48.9961 86.648 48.2921 88.28C47.6201 89.912 46.9641 91.48 46.3241 92.984C45.6841 94.456 45.1401 95.72 44.6921 96.776H39.4601C39.0121 95.72 38.4681 94.456 37.8281 92.984C37.1881 91.48 36.5161 89.912 35.8121 88.28C35.1401 86.648 34.4521 85.016 33.7481 83.384C33.0441 81.752 32.4041 80.264 31.8281 78.92C31.5081 82.792 31.2681 86.632 31.1081 90.44C30.9481 94.248 30.8201 97.768 30.7241 101H23.4281C23.5561 98.376 23.7001 95.576 23.8601 92.6C24.0521 89.624 24.2441 86.664 24.4361 83.72C24.6601 80.744 24.9001 77.896 25.1561 75.176C25.4441 72.424 25.7481 69.944 26.0681 67.736H33.2201ZM95.4983 101C95.1463 99.848 94.7463 98.664 94.2983 97.448C93.8823 96.232 93.4663 95.016 93.0503 93.8H80.0903C79.6743 95.016 79.2423 96.232 78.7943 97.448C78.3783 98.664 77.9943 99.848 77.6423 101H69.8663C71.1143 97.416 72.2983 94.104 73.4183 91.064C74.5383 88.024 75.6263 85.16 76.6823 82.472C77.7703 79.784 78.8263 77.24 79.8503 74.84C80.9063 72.408 81.9943 70.04 83.1143 67.736H90.2663C91.3543 70.04 92.4263 72.408 93.4823 74.84C94.5383 77.24 95.5943 79.784 96.6503 82.472C97.7383 85.16 98.8423 88.024 99.9623 91.064C101.082 94.104 102.266 97.416 103.514 101H95.4983ZM86.5223 75.272C86.3623 75.752 86.1223 76.408 85.8023 77.24C85.4823 78.072 85.1143 79.032 84.6983 80.12C84.2823 81.208 83.8183 82.408 83.3063 83.72C82.8263 85.032 82.3303 86.408 81.8183 87.848H91.2743C90.7623 86.408 90.2663 85.032 89.7863 83.72C89.3063 82.408 88.8423 81.208 88.3943 80.12C87.9783 79.032 87.6103 78.072 87.2903 77.24C86.9703 76.408 86.7143 75.752 86.5223 75.272ZM121.068 94.904C121.42 94.936 121.82 94.968 122.268 95C122.748 95 123.308 95 123.948 95C127.692 95 130.46 94.056 132.252 92.168C134.076 90.28 134.988 87.672 134.988 84.344C134.988 80.856 134.124 78.216 132.396 76.424C130.668 74.632 127.932 73.736 124.188 73.736C123.676 73.736 123.148 73.752 122.604 73.784C122.06 73.784 121.548 73.816 121.068 73.88V94.904ZM142.716 84.344C142.716 87.224 142.268 89.736 141.372 91.88C140.476 94.024 139.196 95.8 137.532 97.208C135.9 98.616 133.9 99.672 131.532 100.376C129.164 101.08 126.508 101.432 123.564 101.432C122.22 101.432 120.652 101.368 118.86 101.24C117.068 101.144 115.308 100.92 113.58 100.568V68.168C115.308 67.848 117.1 67.64 118.956 67.544C120.844 67.416 122.46 67.352 123.804 67.352C126.652 67.352 129.228 67.672 131.532 68.312C133.868 68.952 135.868 69.96 137.532 71.336C139.196 72.712 140.476 74.472 141.372 76.616C142.268 78.76 142.716 81.336 142.716 84.344ZM154.731 101V67.736H177.195V74.024H162.219V80.552H175.515V86.696H162.219V94.712H178.299V101H154.731ZM73.5225 126.288C73.9065 127.6 74.3225 129.088 74.7705 130.752C75.2505 132.384 75.7465 134.08 76.2585 135.84C76.8025 137.6 77.3465 139.36 77.8905 141.12C78.4345 142.88 78.9625 144.512 79.4745 146.016C79.8905 144.384 80.3065 142.608 80.7225 140.688C81.1705 138.768 81.5865 136.784 81.9705 134.736C82.3545 132.688 82.7225 130.656 83.0745 128.64C83.4585 126.592 83.8105 124.624 84.1305 122.736H91.9065C90.7865 128.304 89.4905 133.952 88.0185 139.68C86.5785 145.408 85.0105 150.848 83.3145 156H76.4505C75.3305 152.928 74.2425 149.712 73.1865 146.352C72.1305 142.96 71.0905 139.568 70.0665 136.176C69.0425 139.568 68.0185 142.96 66.9945 146.352C65.9705 149.712 64.8985 152.928 63.7785 156H56.9145C55.2185 150.848 53.6345 145.408 52.1625 139.68C50.7225 133.952 49.4425 128.304 48.3225 122.736H56.4345C56.7545 124.624 57.1065 126.592 57.4905 128.64C57.8745 130.656 58.2745 132.688 58.6905 134.736C59.1065 136.784 59.5225 138.768 59.9385 140.688C60.3865 142.608 60.8345 144.384 61.2825 146.016C61.8585 144.448 62.4185 142.784 62.9625 141.024C63.5065 139.264 64.0345 137.504 64.5465 135.744C65.0585 133.984 65.5225 132.288 65.9385 130.656C66.3865 129.024 66.7865 127.568 67.1385 126.288H73.5225ZM99.1181 122.736H106.606V156H99.1181V122.736ZM141.378 122.736V129.12H131.346V156H123.858V129.12H113.826V122.736H141.378ZM168.654 122.736H176.142V156H168.654V141.888H156.078V156H148.59V122.736H156.078V135.456H168.654V122.736Z" fill="#FEFBFC"/>
<path fill-rule="evenodd" clip-rule="evenodd" d="M303.493 178.831L265 23L419.308 67.4263L303.493 178.831Z" stroke="#EBE9E9" stroke-width="4" stroke-miterlimit="10" stroke-linejoin="round"/>
<path fill-rule="evenodd" clip-rule="evenodd" d="M342.126 45.2176L361.358 123.156L284.247 100.936L342.126 45.2176Z" stroke="#EBE9E9" stroke-width="4" stroke-miterlimit="10" stroke-linejoin="round"/>
<path fill-rule="evenodd" clip-rule="evenodd" d="M322.992 111.507L313.439 72.7896L351.749 83.7871L322.992 111.507Z" stroke="#EBE9E9" stroke-width="4" stroke-miterlimit="10" stroke-linejoin="round"/>
<path fill-rule="evenodd" clip-rule="evenodd" d="M303.883 34.1195L313.436 72.8368L275.125 61.8394L303.883 34.1195Z" stroke="#EBE9E9" stroke-width="4" stroke-miterlimit="10" stroke-linejoin="round"/>
<path fill-rule="evenodd" clip-rule="evenodd" d="M380.5 56.1901L390.052 94.9075L351.742 83.91L380.5 56.1901Z" stroke="#EBE9E9" stroke-width="4" stroke-miterlimit="10" stroke-linejoin="round"/>
<path fill-rule="evenodd" clip-rule="evenodd" d="M322.996 111.534L332.549 150.251L294.239 139.254L322.996 111.534Z" stroke="#EBE9E9" stroke-width="4" stroke-miterlimit="10" stroke-linejoin="round"/>
<path d="M500.024 71.472V84.24H479.96V138H464.984V84.24H444.92V71.472H500.024ZM508.689 138V65.808L522.993 63.504V87.696C523.953 87.376 525.169 87.088 526.641 86.832C528.177 86.512 529.649 86.352 531.057 86.352C535.153 86.352 538.545 86.928 541.233 88.08C543.985 89.168 546.161 90.736 547.761 92.784C549.425 94.832 550.577 97.264 551.217 100.08C551.921 102.896 552.273 106.032 552.273 109.488V138H537.969V111.216C537.969 106.608 537.361 103.344 536.145 101.424C534.993 99.504 532.817 98.544 529.617 98.544C528.337 98.544 527.121 98.672 525.969 98.928C524.881 99.12 523.889 99.344 522.993 99.6V138H508.689ZM595.652 100.176C594.372 99.856 592.868 99.536 591.14 99.216C589.412 98.832 587.556 98.64 585.572 98.64C584.676 98.64 583.588 98.736 582.308 98.928C581.092 99.056 580.164 99.216 579.524 99.408V138H565.22V90.192C567.78 89.296 570.788 88.464 574.244 87.696C577.764 86.864 581.668 86.448 585.956 86.448C586.724 86.448 587.652 86.512 588.74 86.64C589.828 86.704 590.916 86.832 592.004 87.024C593.092 87.152 594.18 87.344 595.268 87.6C596.356 87.792 597.284 88.048 598.052 88.368L595.652 100.176ZM602.383 113.136C602.383 108.656 603.055 104.752 604.398 101.424C605.807 98.032 607.631 95.216 609.871 92.976C612.111 90.736 614.671 89.04 617.551 87.888C620.495 86.736 623.503 86.16 626.575 86.16C633.743 86.16 639.407 88.368 643.567 92.784C647.727 97.136 649.807 103.568 649.807 112.08C649.807 112.912 649.775 113.84 649.711 114.864C649.647 115.824 649.583 116.688 649.519 117.456H617.071C617.391 120.4 618.767 122.736 621.199 124.464C623.631 126.192 626.895 127.056 630.991 127.056C633.615 127.056 636.175 126.832 638.671 126.384C641.231 125.872 643.311 125.264 644.911 124.56L646.831 136.176C646.063 136.56 645.039 136.944 643.759 137.328C642.479 137.712 641.039 138.032 639.439 138.288C637.903 138.608 636.239 138.864 634.447 139.056C632.655 139.248 630.863 139.344 629.071 139.344C624.527 139.344 620.559 138.672 617.167 137.328C613.839 135.984 611.055 134.16 608.815 131.856C606.639 129.488 605.007 126.704 603.919 123.504C602.895 120.304 602.383 116.848 602.383 113.136ZM635.983 107.664C635.919 106.448 635.695 105.264 635.311 104.112C634.991 102.96 634.447 101.936 633.679 101.04C632.975 100.144 632.047 99.408 630.895 98.832C629.807 98.256 628.431 97.968 626.767 97.968C625.167 97.968 623.791 98.256 622.639 98.832C621.487 99.344 620.527 100.048 619.759 100.944C618.991 101.84 618.383 102.896 617.935 104.112C617.551 105.264 617.263 106.448 617.071 107.664H635.983ZM658.445 113.136C658.445 108.656 659.117 104.752 660.461 101.424C661.869 98.032 663.693 95.216 665.933 92.976C668.173 90.736 670.733 89.04 673.613 87.888C676.557 86.736 679.565 86.16 682.637 86.16C689.805 86.16 695.469 88.368 699.629 92.784C703.789 97.136 705.869 103.568 705.869 112.08C705.869 112.912 705.837 113.84 705.773 114.864C705.709 115.824 705.645 116.688 705.581 117.456H673.133C673.453 120.4 674.829 122.736 677.261 124.464C679.693 126.192 682.957 127.056 687.053 127.056C689.677 127.056 692.237 126.832 694.733 126.384C697.293 125.872 699.373 125.264 700.973 124.56L702.893 136.176C702.125 136.56 701.101 136.944 699.821 137.328C698.541 137.712 697.101 138.032 695.501 138.288C693.965 138.608 692.301 138.864 690.509 139.056C688.717 139.248 686.925 139.344 685.133 139.344C680.589 139.344 676.621 138.672 673.229 137.328C669.901 135.984 667.117 134.16 664.877 131.856C662.701 129.488 661.069 126.704 659.981 123.504C658.957 120.304 658.445 116.848 658.445 113.136ZM692.045 107.664C691.981 106.448 691.757 105.264 691.373 104.112C691.053 102.96 690.509 101.936 689.741 101.04C689.037 100.144 688.109 99.408 686.957 98.832C685.869 98.256 684.493 97.968 682.829 97.968C681.229 97.968 679.853 98.256 678.701 98.832C677.549 99.344 676.589 100.048 675.821 100.944C675.053 101.84 674.445 102.896 673.997 104.112C673.613 105.264 673.325 106.448 673.133 107.664H692.045ZM730.924 130.416C730.924 133.296 729.996 135.504 728.14 137.04C726.348 138.512 724.3 139.248 721.996 139.248C719.692 139.248 717.612 138.512 715.756 137.04C713.964 135.504 713.068 133.296 713.068 130.416C713.068 127.536 713.964 125.36 715.756 123.888C717.612 122.352 719.692 121.584 721.996 121.584C724.3 121.584 726.348 122.352 728.14 123.888C729.996 125.36 730.924 127.536 730.924 130.416ZM734.821 146.88C734.373 146.88 733.716 146.832 732.852 146.736C731.956 146.64 731.124 146.464 730.356 146.208L731.316 140.4C731.796 140.56 732.244 140.672 732.66 140.736C733.044 140.8 733.541 140.832 734.149 140.832C735.269 140.832 736.053 140.496 736.501 139.824C736.949 139.152 737.173 138.176 737.173 136.896V112.752H744.325V137.088C744.325 140.416 743.509 142.88 741.877 144.48C740.245 146.08 737.893 146.88 734.821 146.88ZM744.997 105.456C744.997 106.768 744.565 107.808 743.701 108.576C742.869 109.312 741.877 109.68 740.725 109.68C739.573 109.68 738.565 109.312 737.701 108.576C736.869 107.808 736.453 106.768 736.453 105.456C736.453 104.144 736.869 103.12 737.701 102.384C738.565 101.616 739.573 101.232 740.725 101.232C741.877 101.232 742.869 101.616 743.701 102.384C744.565 103.12 744.997 104.144 744.997 105.456ZM758.296 132.864C759.608 132.864 760.536 132.736 761.08 132.48C761.624 132.224 761.896 131.728 761.896 130.992C761.896 130.416 761.544 129.92 760.84 129.504C760.136 129.056 759.064 128.56 757.624 128.016C756.504 127.6 755.48 127.168 754.552 126.72C753.656 126.272 752.888 125.744 752.248 125.136C751.608 124.496 751.112 123.744 750.76 122.88C750.408 122.016 750.232 120.976 750.232 119.76C750.232 117.392 751.112 115.52 752.872 114.144C754.632 112.768 757.048 112.08 760.12 112.08C761.656 112.08 763.128 112.224 764.536 112.512C765.944 112.768 767.064 113.056 767.896 113.376L766.648 118.944C765.816 118.656 764.904 118.4 763.912 118.176C762.952 117.952 761.864 117.84 760.648 117.84C758.408 117.84 757.288 118.464 757.288 119.712C757.288 120 757.336 120.256 757.432 120.48C757.528 120.704 757.72 120.928 758.008 121.152C758.296 121.344 758.68 121.568 759.16 121.824C759.672 122.048 760.312 122.304 761.08 122.592C762.648 123.168 763.944 123.744 764.968 124.32C765.992 124.864 766.792 125.472 767.368 126.144C767.976 126.784 768.392 127.504 768.616 128.304C768.872 129.104 769 130.032 769 131.088C769 133.584 768.056 135.472 766.168 136.752C764.312 138.032 761.672 138.672 758.248 138.672C756.008 138.672 754.136 138.48 752.632 138.096C751.16 137.712 750.136 137.392 749.56 137.136L750.76 131.328C751.976 131.808 753.224 132.192 754.504 132.48C755.784 132.736 757.048 132.864 758.296 132.864Z" fill="#FEFBFC"/>
</g>
<defs>
<clipPath id="clip0_944_16">
<rect width="786" height="202" fill="white"/>
</clipPath>
</defs>
</svg>
